<?xml version="1.0" encoding="UTF-8"?>
<svg width="339px" height="254px" viewBox="0 0 339 254" version="1.1" xmlns="http://www.w3.org/2000/svg" xmlns:xlink="http://www.w3.org/1999/xlink">
    <!-- Generator: Sketch 52.6 (67491) - http://www.bohemiancoding.com/sketch -->
    <title>Robot</title>
    <desc>Created with Sketch.</desc>
    <defs>
        <path d="M202.409895,0.395102402 C219.519046,0.395102402 269.619525,17.5330488 269.619525,87.3291539 C269.619525,150.022504 241.342163,222.283859 170.633629,230 C90.9532294,230 1,176.533499 1,116.642535 C-1.40491747,52.4586487 126.115588,0.395102402 202.409895,0.395102402 Z" id="path-1"></path>
        <path d="M202.409895,0.395102402 C219.519046,0.395102402 269.619525,17.5330488 269.619525,87.3291539 C269.619525,150.022504 241.342163,222.283859 170.633629,230 C90.9532294,230 1,176.533499 1,116.642535 C-1.40491747,52.4586487 126.115588,0.395102402 202.409895,0.395102402 Z" id="path-3"></path>
        <path d="M31.5527875,2.84217094e-14 L122.835407,3.90798505e-14 C136.090241,3.6644977e-14 146.835407,10.745166 146.835407,24 C146.835407,26.076658 146.56588,28.1445339 146.03358,30.1518119 L132.223689,82.2282142 C128.503359,96.2573932 115.806879,106.025798 101.292792,106.025798 L52.9638229,106.025798 C38.4216137,106.025798 25.7079538,96.2202447 22.0136339,82.1551158 L8.34014579,30.096988 C4.97287228,17.277 12.6358115,4.15463176 25.4557995,0.787358252 C27.4459728,0.264623133 29.4951088,4.65632673e-14 31.5527875,2.84217094e-14 Z" id="path-5"></path>
    </defs>
    <g id="Page-1" stroke="none" stroke-width="1" fill="none" fill-rule="evenodd">
        <g id="Robot" transform="translate(-1.000000, 0.000000)">
            <path d="M202.409895,24.3951024 C219.519046,24.3951024 269.619525,41.5330488 269.619525,111.329154 C269.619525,174.022504 241.342163,246.283859 170.633629,254 C90.9532294,254 1,200.533499 1,140.642535 C-1.40491747,76.4586487 126.115588,24.3951024 202.409895,24.3951024 Z" id="Background" fill="#0066E8"></path>
            <g id="Arm" transform="translate(0.000000, 24.000000)">
                <g id="Hip">
                    <g>
                        <mask id="mask-2" fill="white">
                            <use xlink:href="#path-1"></use>
                        </mask>
                        <use id="Mask" fill="#0066E8" xlink:href="#path-1"></use>
                        <rect fill="#FFFFFF" mask="url(#mask-2)" x="122" y="208" width="55" height="28" rx="14"></rect>
                    </g>
                </g>
                <mask id="mask-4" fill="white">
                    <use xlink:href="#path-3"></use>
                </mask>
                <g id="Mask"></g>
                <g mask="url(#mask-4)">
                    <g transform="translate(30.000000, 85.000000)">
                        <polygon id="Arm" fill="#3F3786" points="22 40 41 40 41 102 22 102"></polygon>
                        <path d="M7.15513707,190.458903 L0.417368751,190.458903 L0.417368751,108.958903 C0.417368751,97.0847811 10.0432466,87.4589032 21.9173688,87.4589032 C33.7914909,87.4589032 43.4173688,97.0847811 43.4173688,108.958903 L43.4173688,138.662467 C43.4173688,138.860091 43.4167829,139.057714 43.4156113,139.255334 L43.3270269,154.196784 C43.3767972,174.173967 27.2224373,190.409021 7.24525418,190.458791 C7.2152152,190.458866 7.18517614,190.458903 7.15513707,190.458903 Z" id="Forearm" fill="#FFFFFF"></path>
                        <g id="Shoulder" stroke-width="1" fill="none" transform="translate(4.000000, 0.000000)">
                            <path d="M21.5,0 L52.5,0 C64.3741221,-2.18124085e-15 74,9.62587788 74,21.5 C74,33.3741221 64.3741221,43 52.5,43 L21.5,43 C9.62587788,43 1.45416056e-15,33.3741221 0,21.5 C-1.45416056e-15,9.62587788 9.62587788,5.73395453e-15 21.5,0 Z" id="Rectangle" fill="#FFFFFF"></path>
                            <path d="M26,0 L50,0 L50,22 C50,28.627417 44.627417,34 38,34 C31.372583,34 26,28.627417 26,22 L26,0 Z" id="Rectangle" fill="#9CDBDC"></path>
                        </g>
                    </g>
                </g>
            </g>
            <g id="Arm" transform="translate(180.000000, 0.000000)">
                <polygon fill="#3F3786" points="63 134 63 115 125 115 125 134"></polygon>
                <g id="Hand" transform="translate(107.000000, 0.000000)">
                    <polygon id="Finger" fill="#3F3786" points="9.76996262e-15 35.2519253 6.4740582 29 21.061884 44.1061358 14.5878258 50.3580611"></polygon>
                    <polygon id="Finger" fill="#3F3786" points="15.2592032 25.9215744 23.1122206 24.3951024 27.1192095 45.0092733 19.2661921 46.5357452"></polygon>
                    <polygon id="Finger" fill="#3F3786" points="30.0316951 22.6497963 38.0304766 22.7894155 37.6639761 43.7862171 29.6651945 43.6465979"></polygon>
                    <polygon id="Finger" fill="#3F3786" points="29.3665005 3.37507799e-14 37.3652821 0.139619251 36.9987816 21.1364208 29 20.9968016"></polygon>
                    <polygon id="Finger" fill="#3F3786" points="42.1606003 24.9572786 49.9857811 26.6205721 45.6196356 47.1616717 37.7944548 45.4983782"></polygon>
                    <polygon id="Finger" fill="#3F3786" points="44.5754228 3.76543458 52.5157921 4.74038932 49.9565358 25.5838585 42.0161666 24.6089038"></polygon>
                    <polygon id="Finger" fill="#3F3786" points="13.9497054 4.08923349 21.944832 3.81003752 22.6777214 24.7972449 14.6825948 25.0764409"></polygon>
                    <circle id="Oval" fill="#FFFFFF" cx="46.0764616" cy="25.5" r="5.5"></circle>
                    <circle id="Oval" fill="#FFFFFF" cx="33.5" cy="21.5" r="5.5"></circle>
                    <circle id="Oval" fill="#FFFFFF" cx="19.5" cy="25.5" r="5.5"></circle>
                </g>
                <path d="M148.848711,36.0558775 L155.577245,36.408505 L151.311865,117.796812 C150.690421,129.654661 140.573956,138.763568 128.716107,138.142124 C116.858258,137.520681 107.749351,127.404215 108.370795,115.546366 L109.925359,85.8835096 C109.935702,85.686157 109.94663,85.4888354 109.958143,85.2915475 L110.828581,70.3752102 C111.824404,50.4228004 128.806301,35.0554504 148.758711,36.0512732 C148.788713,36.0527706 148.818713,36.0543054 148.848711,36.0558775 Z" id="Forearm" fill="#FFFFFF"></path>
                <g id="Shoulder" transform="translate(41.918799, 123.904110) rotate(-18.000000) translate(-41.918799, -123.904110) translate(4.918799, 102.404110)">
                    <path d="M21.5,0 L52.5,0 C64.3741221,-2.18124085e-15 74,9.62587788 74,21.5 C74,33.3741221 64.3741221,43 52.5,43 L21.5,43 C9.62587788,43 1.45416056e-15,33.3741221 0,21.5 C-1.45416056e-15,9.62587788 9.62587788,5.73395453e-15 21.5,0 Z" id="Rectangle" fill="#FFFFFF"></path>
                    <path d="M26,0 L50,0 L50,22 C50,28.627417 44.627417,34 38,34 C31.372583,34 26,28.627417 26,22 L26,0 Z" id="Rectangle" fill="#9CDBDC"></path>
                </g>
            </g>
            <g id="Torso" transform="translate(72.000000, 126.000000)">
                <mask id="mask-6" fill="white">
                    <use xlink:href="#path-5"></use>
                </mask>
                <use id="Mask" fill="#FFFFFF" xlink:href="#path-5"></use>
                <path d="M21.9750001,78.63489 C62.1687722,78.63489 53.1805058,47.5585629 78.2653127,47.5585629 C103.35012,47.5585629 99.8031318,78.63489 132.867922,78.63489 C154.911115,78.63489 156.955141,87.7565933 139,106 L16,106 C-6.81251462,87.7565933 -4.82084791,78.63489 21.9750001,78.63489 Z" id="Rectangle" fill="#9CDBDC" mask="url(#mask-6)"></path>
                <circle id="Oval" stroke="#3F3786" stroke-width="2" fill="#9CDBDC" mask="url(#mask-6)" cx="77" cy="28" r="10"></circle>
            </g>
            <polygon id="Neck" fill="#DDEEF0" points="133 116 165 116 165 127 133 127"></polygon>
            <g id="Head" transform="translate(92.000000, 6.000000)">
                <path d="M107,38 C111.418278,38 115,41.581722 115,46 L115,69 C115,73.418278 111.418278,77 107,77 L107,38 Z" id="Rectangle" fill="#3F3786"></path>
                <path d="M8,77 C3.581722,77 -1.77635684e-15,73.418278 -1.77635684e-15,69 L8.8817842e-16,46 C1.77635684e-15,41.581722 3.581722,38 8,38 L8,77 Z" id="Rectangle" fill="#3F3786"></path>
                <path d="M48,0 L67,0 C89.6436747,-4.15957557e-15 108,18.3563253 108,41 L108,71 C108,93.6436747 89.6436747,112 67,112 L48,112 C25.3563253,112 7,93.6436747 7,71 L7,41 C7,18.3563253 25.3563253,4.15957557e-15 48,0 Z" id="Rectangle" fill="#FFFFFF"></path>
                <g id="Face" transform="translate(20.000000, 14.000000)">
                    <path d="M28,0 L47,-3.55271368e-15 C62.463973,-6.39339943e-15 75,12.536027 75,28 L75,55 C75,70.463973 62.463973,83 47,83 L28,83 C12.536027,83 1.8937905e-15,70.463973 0,55 L0,28 C-1.8937905e-15,12.536027 12.536027,2.84068575e-15 28,0 Z" id="Rectangle" fill="#3F3786"></path>
                    <circle id="Oval" fill="#9CDBDC" cx="20.5" cy="31.5" r="4.5"></circle>
                    <circle id="Oval" fill="#9CDBDC" cx="52.5" cy="31.5" r="4.5"></circle>
                    <path d="M37.5,54.0530882 C42.7467051,54.0530882 47,50.0448177 47,45.1003656 C47,42.630536 42.245391,45.1027598 37.5,45.1003656 C32.7453999,45.0979667 28,42.6257429 28,45.1003656 C28,50.0448177 32.2532949,54.0530882 37.5,54.0530882 Z" id="Oval" fill="#9CDBDC"></path>
                </g>
            </g>
        </g>
    </g>
</svg>