<svg width="3242" height="391" viewBox="0 0 3242 391" fill="none" xmlns="http://www.w3.org/2000/svg">
<g id="Logo">
<g id="Flask">
<g id="Group-4">
<path id="Fill-1" fill-rule="evenodd" clip-rule="evenodd" d="M340.651 98.9598C340.47 98.0075 339.629 97.3245 338.66 97.3467L289.993 98.4212C289.937 98.4239 289.884 98.4267 289.829 98.4323C289.31 98.4878 288.829 98.746 288.499 99.1541L268.074 124.346C267.591 124.946 267.496 125.773 267.835 126.465C268.174 127.159 268.884 127.589 269.656 127.572L316.647 126.534L325.344 172.732C325.486 173.49 326.055 174.095 326.804 174.284C327.035 174.342 327.268 174.359 327.496 174.334C328.009 174.281 328.489 174.029 328.828 173.612L349.251 148.42C349.617 147.97 349.767 147.379 349.659 146.807L340.651 98.9598Z" fill="#5781FF"/>
<path id="Fill-3" fill-rule="evenodd" clip-rule="evenodd" d="M361.504 303.83L299.359 216.44C298.387 215.074 296.833 214.23 295.156 214.16C293.432 214.088 291.861 214.802 290.778 216.084L275.785 233.836C274.184 235.729 274.07 238.47 275.505 240.491L334.427 323.483C334.427 323.486 334.649 323.78 334.652 323.783C334.769 323.95 337.556 327.884 339.588 332.948C341.725 338.256 341.794 341.782 341.32 342.856C336.287 354.245 328.559 357.282 324.786 357.282H50.24C46.4648 357.282 38.7393 354.245 33.7093 342.856C32.3768 339.847 35.8079 330.038 40.2688 323.93C40.3049 323.883 40.5187 323.597 40.552 323.55L92.3622 252.879C96.0764 253.117 99.6768 252.612 103.122 251.402L160.181 290.992C164.914 299.943 174.28 305.645 184.457 305.645C199.602 305.645 211.925 293.321 211.925 278.174C211.925 277.735 211.911 277.288 211.886 276.824L329.372 138.533C330.308 137.434 330.763 136.007 330.646 134.566C330.527 133.128 329.841 131.795 328.736 130.862L311.481 116.284C309.199 114.354 305.771 114.635 303.836 116.917L189.692 251.216C182.153 249.725 174.377 251.521 168.331 255.935L121.51 223.511C120.505 209.271 108.599 197.994 94.111 197.994C78.9655 197.994 66.6431 210.318 66.6431 225.465C66.6431 227.217 66.8124 228.963 67.1455 230.685L13.6254 303.696C12.7509 304.846 -7.60228 332.148 3.10453 356.382C14.2971 381.716 34.7919 390.745 50.24 390.745H324.786C340.232 390.745 360.729 381.716 371.922 356.382C382.629 332.148 362.278 304.846 361.504 303.83Z" fill="#5781FF"/>
</g>
<path id="Fill-5" fill-rule="evenodd" clip-rule="evenodd" d="M240.781 0.744873H134.246C126.27 0.744873 119.777 7.2359 119.777 15.2178V23.1247C119.777 31.1039 126.27 37.5949 134.246 37.5949H138.895L137.557 134.627L112.613 167.987C111.119 170.011 111.214 172.796 112.835 174.717L127.828 192.469C128.902 193.74 130.44 194.476 132.161 194.393C133.824 194.34 135.37 193.524 136.355 192.183L165.561 153.026C169.034 148.287 170.907 142.692 170.988 136.834L172.404 34.205H202.625L204.041 136.834C204.119 142.692 205.993 148.287 209.465 153.026L224.936 174.051C225.921 175.389 227.467 176.205 229.133 176.261C230.854 176.341 232.392 175.608 233.466 174.334L248.459 156.582C250.08 154.661 250.175 151.879 248.681 149.852L237.472 134.627L236.134 37.5949H240.781C248.759 37.5949 255.249 31.1039 255.249 23.1247V15.2178C255.249 7.2359 248.759 0.744873 240.781 0.744873Z" fill="#424240"/>
</g>
<path id="Fill-6" fill-rule="evenodd" clip-rule="evenodd" d="M574.992 255.058V379.806C574.992 383.304 571.922 386.369 568.41 386.369H536.8C533.289 386.369 530.216 383.304 530.216 379.806V86.5468C530.216 83.0487 533.289 79.9836 536.8 79.9836H725.576C729.087 79.9836 732.163 83.0487 732.163 86.5468V112.808C732.163 116.312 729.087 119.377 725.576 119.377H574.992V215.665H691.334C694.846 215.665 697.916 218.73 697.916 222.234V248.495C697.916 251.993 694.846 255.058 691.334 255.058H574.992Z" fill="#5781FF"/>
<path id="Fill-7" fill-rule="evenodd" clip-rule="evenodd" d="M900.743 276.949C900.743 257.687 892.401 200.351 834.889 200.351C777.377 200.351 769.038 257.687 769.038 276.949C769.038 296.203 777.377 353.539 834.889 353.539C892.401 353.539 900.743 296.203 900.743 276.949ZM944.209 276.949C944.209 324.216 919.181 389.868 834.889 389.868C750.598 389.868 725.575 324.216 725.575 276.949C725.575 230.985 750.598 164.023 834.889 164.023C919.181 164.023 944.209 230.985 944.209 276.949Z" fill="#5781FF"/>
<path id="Fill-8" fill-rule="evenodd" clip-rule="evenodd" d="M1088.21 197.722C1087.33 201.228 1083.81 203.416 1080.3 202.972C1076.79 202.539 1073.28 202.539 1069.76 202.539C1044.74 202.539 1022.79 214.355 1016.64 231.862V379.806C1016.64 383.304 1013.57 386.369 1010.06 386.369H979.33C975.816 386.369 972.743 383.304 972.743 379.806V174.084C972.743 170.586 975.816 167.521 979.33 167.521H992.496C996.446 167.521 999.961 170.15 1001.28 173.648L1006.55 189.845C1025.42 171.896 1049.13 164.023 1072.84 164.023C1078.11 164.023 1081.18 164.456 1087.33 165.333C1090.84 165.769 1093.47 169.273 1092.59 172.774L1088.21 197.722Z" fill="#5781FF"/>
<path id="Fill-9" fill-rule="evenodd" clip-rule="evenodd" d="M1155.37 379.806C1155.37 383.304 1152.3 386.369 1148.79 386.369H1118.06C1114.55 386.369 1111.47 383.304 1111.47 379.806V174.084C1111.47 170.586 1114.55 167.521 1118.06 167.521H1131.23C1135.18 167.521 1138.69 170.15 1140.01 173.648L1145.28 189.845C1164.15 171.896 1187.86 164.023 1211.57 164.023C1248.01 164.023 1269.08 175.403 1280.93 192.91L1284 189.845C1302.88 171.896 1326.59 164.023 1350.3 164.023C1431.95 164.023 1435.46 222.234 1435.46 273.443V379.806C1435.46 383.304 1432.39 386.369 1428.88 386.369H1398.59C1395.08 386.369 1392 383.304 1392 379.806V273.443C1390.69 256.81 1399.03 203.849 1348.1 200.351C1320.44 198.596 1303.32 214.355 1294.1 229.674C1296.3 243.678 1296.74 258.998 1296.74 273.443V379.806C1296.74 383.304 1293.66 386.369 1290.15 386.369H1259.86C1256.34 386.369 1253.27 383.304 1253.27 379.806V273.443C1252.39 256.81 1260.3 203.849 1209.37 200.351C1181.71 198.596 1164.59 214.355 1155.37 229.674V379.806Z" fill="#5781FF"/>
<path id="Fill-10" fill-rule="evenodd" clip-rule="evenodd" d="M1615.02 174.084C1615.02 170.586 1618.09 167.521 1621.61 167.521H1652.34C1655.85 167.521 1658.92 170.586 1658.92 174.084V379.806C1658.92 383.304 1655.85 386.369 1652.34 386.369H1639.17C1635.21 386.369 1631.7 383.74 1630.38 380.239L1625.12 364.042C1606.24 381.994 1582.53 389.868 1558.82 389.868C1477.17 389.868 1466.19 331.654 1466.19 280.447V174.084C1466.19 170.586 1469.27 167.521 1472.78 167.521H1503.95C1507.46 167.521 1510.53 170.586 1510.53 174.084V280.447C1511.85 297.08 1506.14 353.104 1561.02 353.104C1586.92 353.104 1606.68 338.225 1615.02 324.216V174.084Z" fill="#5781FF"/>
<path id="Fill-11" fill-rule="evenodd" clip-rule="evenodd" d="M1755.5 379.806C1755.5 383.304 1752.43 386.369 1748.92 386.369H1718.18C1714.67 386.369 1711.6 383.304 1711.6 379.806V86.5468C1711.6 83.0487 1714.67 79.9836 1718.18 79.9836H1748.92C1752.43 79.9836 1755.5 83.0487 1755.5 86.5468V379.806Z" fill="#5781FF"/>
<path id="Fill-12" fill-rule="evenodd" clip-rule="evenodd" d="M1929.35 290.95C1907.84 288.329 1840.23 280.006 1840.23 320.715C1840.23 343.911 1857.79 355.727 1877.98 355.727C1903.01 355.727 1921.88 337.784 1929.35 324.657V290.95ZM1973.25 255.499V379.806C1973.25 383.304 1970.18 386.369 1966.67 386.369H1953.49C1949.54 386.369 1946.03 383.74 1945.15 380.239L1939.88 363.609C1921.88 381.552 1896.42 390.309 1876.66 390.309C1809.94 390.309 1799.4 344.353 1799.4 324.216C1799.4 249.369 1878.42 251.557 1929.35 257.251V252.434C1929.35 207.791 1915.74 200.784 1886.32 200.784C1875.79 200.784 1852.08 205.159 1832.77 212.167C1829.25 213.477 1825.3 212.167 1823.99 208.666L1816.52 190.717C1814.76 187.216 1816.52 183.276 1819.59 181.53C1840.67 171.46 1862.18 165.769 1883.69 164.456C1967.1 159.639 1973.25 209.543 1973.25 255.499Z" fill="#5781FF"/>
<path id="Fill-13" fill-rule="evenodd" clip-rule="evenodd" d="M2255.09 306.706C2255.09 353.539 2208.56 389.868 2146.22 389.868C2103.2 389.868 2072.47 381.552 2040.42 365.797C2037.34 364.042 2036.03 360.108 2037.34 357.046L2048.76 333.408C2050.52 329.908 2054.47 328.592 2057.98 329.908C2083.44 341.723 2111.54 350.039 2142.71 350.039C2176.95 350.039 2208.12 332.973 2208.12 306.273C2208.12 223.111 2037.34 269.5 2037.34 159.639C2037.34 106.678 2077.3 75.1667 2133.05 75.1667C2150.17 75.1667 2189.25 77.7959 2232.27 97.0524C2235.78 98.3629 2237.1 102.302 2235.78 105.809L2224.37 130.757C2223.05 134.258 2219.1 136.01 2215.58 134.691C2194.07 126.376 2161.59 117.189 2143.15 117.189C2110.66 117.189 2084.76 123.752 2082.57 156.141C2082.57 226.609 2255.09 186.341 2255.09 306.706Z" fill="#424240"/>
<path id="Fill-14" fill-rule="evenodd" clip-rule="evenodd" d="M2281.43 203.849C2277.92 203.849 2274.85 200.784 2274.85 197.286V174.084C2274.85 170.586 2277.92 167.521 2281.43 167.521H2302.07L2305.58 130.757C2306.02 127.25 2309.1 124.188 2313.04 124.188H2339.39C2342.9 124.188 2345.97 127.25 2345.97 130.757V167.521H2384.6C2388.12 167.521 2391.19 170.586 2391.19 174.084V197.286C2391.19 200.784 2388.12 203.849 2384.6 203.849H2345.97V326.404C2345.97 340.846 2348.61 354.414 2368.36 352.67C2373.63 352.226 2380.66 350.916 2390.31 348.728C2393.82 348.287 2397.33 350.474 2398.21 353.981L2402.16 373.235C2403.04 377.177 2400.85 380.681 2396.9 381.552C2376.26 387.244 2357.38 388.121 2348.61 388.121C2306.02 388.121 2302.07 348.287 2302.07 333.842V203.849H2281.43Z" fill="#424240"/>
<path id="Fill-15" fill-rule="evenodd" clip-rule="evenodd" d="M2583.04 276.949C2583.04 257.687 2574.7 200.351 2517.19 200.351C2459.68 200.351 2451.33 257.687 2451.33 276.949C2451.33 296.203 2459.68 353.539 2517.19 353.539C2574.7 353.539 2583.04 296.203 2583.04 276.949ZM2626.5 276.949C2626.5 324.216 2601.48 389.868 2517.19 389.868C2432.9 389.868 2407.87 324.216 2407.87 276.949C2407.87 230.985 2432.9 164.023 2517.19 164.023C2601.48 164.023 2626.5 230.985 2626.5 276.949Z" fill="#424240"/>
<path id="Fill-16" fill-rule="evenodd" clip-rule="evenodd" d="M2824.93 222.234C2822.3 224.857 2817.91 224.421 2815.28 222.234C2800.35 209.102 2782.79 202.972 2766.11 202.972C2731.87 202.972 2701.14 228.364 2701.14 275.195C2701.14 312.836 2723.09 351.793 2765.67 351.793C2784.98 351.793 2803.43 343.034 2816.59 331.221C2819.23 328.592 2823.62 328.592 2825.82 331.221L2842.06 349.605C2844.69 352.226 2844.69 356.602 2841.62 359.234C2822.74 377.618 2799.92 390.745 2765.67 390.745C2678.75 390.745 2657.24 325.091 2657.24 275.195C2657.24 229.238 2682.26 161.835 2766.55 161.835C2802.11 161.835 2825.82 174.961 2845.13 195.098C2847.77 197.722 2847.33 202.097 2844.69 204.285L2824.93 222.234Z" fill="#424240"/>
<path id="Fill-17" fill-rule="evenodd" clip-rule="evenodd" d="M2921.96 379.806C2921.96 383.304 2918.88 386.369 2915.38 386.369H2884.64C2881.13 386.369 2878.06 383.304 2878.06 379.806V86.5468C2878.06 83.0487 2881.13 79.9836 2884.64 79.9836H2915.38C2918.88 79.9836 2921.96 83.0487 2921.96 86.5468V258.998L3006.68 172.338C3009.77 169.273 3013.71 167.521 3018.09 167.521H3062.01C3062.9 167.521 3063.31 167.957 3063.76 168.831C3064.2 169.273 3063.76 170.15 3063.31 170.586L2959.27 272.565L3070.78 381.994C3071.67 382.868 3072.11 383.74 3071.67 385.056C3071.22 385.934 3070.34 386.369 3069.48 386.369H3024.7C3020.29 386.369 3016.34 384.615 3013.26 381.553L2921.96 288.762V379.806Z" fill="#424240"/>
<path id="Fill-18" fill-rule="evenodd" clip-rule="evenodd" d="M3242 327.278C3242 364.92 3207.75 389.868 3162.08 389.868C3130.49 389.868 3108.09 383.74 3084.38 371.047C3081.3 369.301 3080 365.361 3081.3 361.855L3091.41 341.724C3092.74 338.225 3096.68 336.907 3099.76 338.658C3118.19 347.409 3138.4 353.539 3159.47 353.539C3179.65 353.539 3196.78 343.475 3196.78 327.714C3196.78 279.137 3081.75 304.96 3082.19 226.609C3082.63 187.216 3111.61 164.023 3153.31 164.023C3165.16 164.023 3194.14 165.769 3226.18 180.653C3229.7 182.399 3231.01 186.341 3229.7 189.845L3219.6 210.854C3218.29 214.355 3214.35 215.665 3210.83 214.355C3195.45 208.224 3175.71 202.097 3161.22 202.097C3141.9 202.097 3124.77 206.914 3123.91 224.857C3123.91 265.125 3242 245.43 3242 327.278Z" fill="#424240"/>
</g>
</svg>
