<svg width="3242" height="390" viewBox="0 0 3242 390" fill="none" xmlns="http://www.w3.org/2000/svg">
<g id="Logo">
<g id="Flask">
<g id="Group-4">
<path id="Fill-1" fill-rule="evenodd" clip-rule="evenodd" d="M340.651 98.2149C340.47 97.2626 339.629 96.5796 338.66 96.6018L289.993 97.6763C289.937 97.6791 289.884 97.6818 289.829 97.6874C289.31 97.7429 288.829 98.0011 288.499 98.4092L268.074 123.602C267.591 124.201 267.496 125.029 267.835 125.72C268.174 126.414 268.884 126.844 269.656 126.828L316.647 125.789L325.344 171.987C325.486 172.745 326.055 173.35 326.804 173.539C327.035 173.597 327.268 173.614 327.496 173.589C328.009 173.536 328.489 173.284 328.828 172.867L349.251 147.675C349.617 147.225 349.767 146.634 349.659 146.062L340.651 98.2149Z" fill="white"/>
<path id="Fill-3" fill-rule="evenodd" clip-rule="evenodd" d="M361.504 303.085L299.359 215.695C298.387 214.329 296.833 213.485 295.156 213.415C293.432 213.343 291.861 214.057 290.778 215.339L275.785 233.091C274.184 234.984 274.07 237.725 275.505 239.746L334.427 322.738C334.427 322.741 334.649 323.035 334.652 323.038C334.769 323.205 337.556 327.139 339.588 332.203C341.725 337.511 341.794 341.037 341.32 342.111C336.287 353.5 328.559 356.537 324.786 356.537H50.24C46.4648 356.537 38.7393 353.5 33.7093 342.111C32.3768 339.102 35.8079 329.293 40.2688 323.185C40.3049 323.138 40.5187 322.852 40.552 322.805L92.3622 252.134C96.0764 252.372 99.6768 251.867 103.122 250.657L160.181 290.247C164.914 299.198 174.28 304.9 184.457 304.9C199.602 304.9 211.925 292.576 211.925 277.429C211.925 276.99 211.911 276.543 211.886 276.079L329.372 137.788C330.308 136.689 330.763 135.262 330.646 133.821C330.527 132.383 329.841 131.05 328.736 130.117L311.481 115.539C309.199 113.609 305.771 113.89 303.836 116.172L189.692 250.471C182.153 248.98 174.377 250.776 168.331 255.19L121.51 222.766C120.505 208.526 108.599 197.249 94.111 197.249C78.9655 197.249 66.6431 209.573 66.6431 224.72C66.6431 226.472 66.8124 228.218 67.1455 229.94L13.6254 302.951C12.7509 304.101 -7.60228 331.403 3.10453 355.637C14.2971 380.971 34.7919 390 50.24 390H324.786C340.232 390 360.729 380.971 371.922 355.637C382.629 331.403 362.278 304.101 361.504 303.085Z" fill="white"/>
</g>
<path id="Fill-5" fill-rule="evenodd" clip-rule="evenodd" d="M240.781 -4.3903e-08H134.246C126.27 -4.3903e-08 119.777 6.49102 119.777 14.4729V22.3799C119.777 30.359 126.27 36.85 134.246 36.85H138.895L137.557 133.882L112.613 167.242C111.119 169.266 111.214 172.051 112.835 173.972L127.828 191.724C128.902 192.996 130.44 193.731 132.161 193.648C133.824 193.595 135.37 192.779 136.355 191.438L165.561 152.281C169.034 147.542 170.907 141.947 170.988 136.089L172.404 33.4601H202.625L204.041 136.089C204.119 141.947 205.993 147.542 209.465 152.281L224.936 173.306C225.921 174.644 227.467 175.46 229.133 175.516C230.854 175.596 232.392 174.863 233.466 173.589L248.459 155.837C250.08 153.916 250.175 151.134 248.681 149.108L237.472 133.882L236.134 36.85H240.781C248.759 36.85 255.249 30.359 255.249 22.3799V14.4729C255.249 6.49102 248.759 -4.3903e-08 240.781 -4.3903e-08Z" fill="white"/>
</g>
<path id="Fill-6" fill-rule="evenodd" clip-rule="evenodd" d="M574.992 254.313V379.061C574.992 382.559 571.922 385.625 568.41 385.625H536.8C533.289 385.625 530.216 382.559 530.216 379.061V85.802C530.216 82.3038 533.289 79.2388 536.8 79.2388H725.576C729.087 79.2388 732.163 82.3038 732.163 85.802V112.063C732.163 115.567 729.087 118.632 725.576 118.632H574.992V214.92H691.334C694.846 214.92 697.916 217.985 697.916 221.489V247.75C697.916 251.248 694.846 254.313 691.334 254.313H574.992Z" fill="white"/>
<path id="Fill-7" fill-rule="evenodd" clip-rule="evenodd" d="M900.743 276.204C900.743 256.942 892.401 199.606 834.889 199.606C777.377 199.606 769.038 256.942 769.038 276.204C769.038 295.458 777.377 352.795 834.889 352.795C892.401 352.795 900.743 295.458 900.743 276.204ZM944.209 276.204C944.209 323.471 919.181 389.123 834.889 389.123C750.598 389.123 725.575 323.471 725.575 276.204C725.575 230.24 750.598 163.278 834.889 163.278C919.181 163.278 944.209 230.24 944.209 276.204Z" fill="white"/>
<path id="Fill-8" fill-rule="evenodd" clip-rule="evenodd" d="M1088.21 196.977C1087.33 200.483 1083.81 202.671 1080.3 202.227C1076.79 201.794 1073.28 201.794 1069.76 201.794C1044.74 201.794 1022.79 213.61 1016.64 231.117V379.061C1016.64 382.559 1013.57 385.625 1010.06 385.625H979.33C975.816 385.625 972.743 382.559 972.743 379.061V173.339C972.743 169.841 975.816 166.776 979.33 166.776H992.496C996.446 166.776 999.961 169.405 1001.28 172.903L1006.55 189.1C1025.42 171.151 1049.13 163.278 1072.84 163.278C1078.11 163.278 1081.18 163.711 1087.33 164.588C1090.84 165.024 1093.47 168.528 1092.59 172.029L1088.21 196.977Z" fill="white"/>
<path id="Fill-9" fill-rule="evenodd" clip-rule="evenodd" d="M1155.37 379.061C1155.37 382.559 1152.3 385.625 1148.79 385.625H1118.06C1114.55 385.625 1111.47 382.559 1111.47 379.061V173.339C1111.47 169.841 1114.55 166.776 1118.06 166.776H1131.23C1135.18 166.776 1138.69 169.405 1140.01 172.903L1145.28 189.1C1164.15 171.151 1187.86 163.278 1211.57 163.278C1248.01 163.278 1269.08 174.658 1280.93 192.165L1284 189.1C1302.88 171.151 1326.59 163.278 1350.3 163.278C1431.95 163.278 1435.46 221.489 1435.46 272.698V379.061C1435.46 382.559 1432.39 385.625 1428.88 385.625H1398.59C1395.08 385.625 1392 382.559 1392 379.061V272.698C1390.69 256.065 1399.03 203.104 1348.1 199.606C1320.44 197.851 1303.32 213.61 1294.1 228.929C1296.3 242.933 1296.74 258.253 1296.74 272.698V379.061C1296.74 382.559 1293.66 385.625 1290.15 385.625H1259.86C1256.34 385.625 1253.27 382.559 1253.27 379.061V272.698C1252.39 256.065 1260.3 203.104 1209.37 199.606C1181.71 197.851 1164.59 213.61 1155.37 228.929V379.061Z" fill="white"/>
<path id="Fill-10" fill-rule="evenodd" clip-rule="evenodd" d="M1615.02 173.339C1615.02 169.841 1618.09 166.776 1621.61 166.776H1652.34C1655.85 166.776 1658.92 169.841 1658.92 173.339V379.061C1658.92 382.559 1655.85 385.624 1652.34 385.624H1639.17C1635.21 385.624 1631.7 382.995 1630.38 379.494L1625.12 363.297C1606.24 381.249 1582.53 389.123 1558.82 389.123C1477.17 389.123 1466.19 330.909 1466.19 279.702V173.339C1466.19 169.841 1469.27 166.776 1472.78 166.776H1503.95C1507.46 166.776 1510.53 169.841 1510.53 173.339V279.702C1511.85 296.335 1506.14 352.359 1561.02 352.359C1586.92 352.359 1606.68 337.48 1615.02 323.471V173.339Z" fill="white"/>
<path id="Fill-11" fill-rule="evenodd" clip-rule="evenodd" d="M1755.5 379.061C1755.5 382.559 1752.43 385.625 1748.92 385.625H1718.18C1714.67 385.625 1711.6 382.559 1711.6 379.061V85.802C1711.6 82.3038 1714.67 79.2388 1718.18 79.2388H1748.92C1752.43 79.2388 1755.5 82.3038 1755.5 85.802V379.061Z" fill="white"/>
<path id="Fill-12" fill-rule="evenodd" clip-rule="evenodd" d="M1929.35 290.205C1907.84 287.584 1840.23 279.261 1840.23 319.97C1840.23 343.166 1857.79 354.982 1877.98 354.982C1903.01 354.982 1921.88 337.039 1929.35 323.913V290.205ZM1973.25 254.755V379.061C1973.25 382.559 1970.18 385.625 1966.67 385.625H1953.49C1949.54 385.625 1946.03 382.995 1945.15 379.494L1939.88 362.864C1921.88 380.808 1896.42 389.564 1876.66 389.564C1809.94 389.564 1799.4 343.608 1799.4 323.471C1799.4 248.624 1878.42 250.812 1929.35 256.506V251.69C1929.35 207.046 1915.74 200.039 1886.32 200.039C1875.79 200.039 1852.08 204.414 1832.77 211.422C1829.25 212.732 1825.3 211.422 1823.99 207.921L1816.52 189.972C1814.76 186.471 1816.52 182.532 1819.59 180.785C1840.67 170.716 1862.18 165.024 1883.69 163.711C1967.1 158.894 1973.25 208.798 1973.25 254.755Z" fill="white"/>
<path id="Fill-13" fill-rule="evenodd" clip-rule="evenodd" d="M2255.09 305.961C2255.09 352.795 2208.56 389.123 2146.22 389.123C2103.2 389.123 2072.47 380.808 2040.42 365.052C2037.34 363.297 2036.03 359.363 2037.34 356.301L2048.76 332.664C2050.52 329.163 2054.47 327.847 2057.98 329.163C2083.44 340.979 2111.54 349.294 2142.71 349.294C2176.95 349.294 2208.12 332.228 2208.12 305.528C2208.12 222.366 2037.34 268.756 2037.34 158.894C2037.34 105.933 2077.3 74.4219 2133.05 74.4219C2150.17 74.4219 2189.25 77.051 2232.27 96.3076C2235.78 97.618 2237.1 101.558 2235.78 105.064L2224.37 130.012C2223.05 133.513 2219.1 135.265 2215.58 133.946C2194.07 125.631 2161.59 116.444 2143.15 116.444C2110.66 116.444 2084.76 123.007 2082.57 155.396C2082.57 225.864 2255.09 185.597 2255.09 305.961Z" fill="white"/>
<path id="Fill-14" fill-rule="evenodd" clip-rule="evenodd" d="M2281.43 203.104C2277.92 203.104 2274.85 200.039 2274.85 196.541V173.339C2274.85 169.841 2277.92 166.776 2281.43 166.776H2302.07L2305.58 130.012C2306.02 126.506 2309.1 123.443 2313.04 123.443H2339.39C2342.9 123.443 2345.97 126.506 2345.97 130.012V166.776H2384.6C2388.12 166.776 2391.19 169.841 2391.19 173.339V196.541C2391.19 200.039 2388.12 203.104 2384.6 203.104H2345.97V325.659C2345.97 340.101 2348.61 353.669 2368.36 351.926C2373.63 351.482 2380.66 350.171 2390.31 347.983C2393.82 347.542 2397.33 349.73 2398.21 353.236L2402.16 372.49C2403.04 376.432 2400.85 379.936 2396.9 380.808C2376.26 386.499 2357.38 387.376 2348.61 387.376C2306.02 387.376 2302.07 347.542 2302.07 333.097V203.104H2281.43Z" fill="white"/>
<path id="Fill-15" fill-rule="evenodd" clip-rule="evenodd" d="M2583.04 276.204C2583.04 256.942 2574.7 199.606 2517.19 199.606C2459.68 199.606 2451.33 256.942 2451.33 276.204C2451.33 295.458 2459.68 352.795 2517.19 352.795C2574.7 352.795 2583.04 295.458 2583.04 276.204ZM2626.5 276.204C2626.5 323.471 2601.48 389.123 2517.19 389.123C2432.9 389.123 2407.87 323.471 2407.87 276.204C2407.87 230.24 2432.9 163.278 2517.19 163.278C2601.48 163.278 2626.5 230.24 2626.5 276.204Z" fill="white"/>
<path id="Fill-16" fill-rule="evenodd" clip-rule="evenodd" d="M2824.93 221.489C2822.3 224.112 2817.91 223.677 2815.28 221.489C2800.35 208.357 2782.79 202.227 2766.11 202.227C2731.87 202.227 2701.14 227.619 2701.14 274.45C2701.14 312.091 2723.09 351.048 2765.67 351.048C2784.98 351.048 2803.43 342.289 2816.59 330.476C2819.23 327.847 2823.62 327.847 2825.82 330.476L2842.06 348.861C2844.69 351.481 2844.69 355.857 2841.62 358.489C2822.74 376.874 2799.92 390 2765.67 390C2678.75 390 2657.24 324.346 2657.24 274.45C2657.24 228.493 2682.26 161.09 2766.55 161.09C2802.11 161.09 2825.82 174.216 2845.13 194.353C2847.77 196.977 2847.33 201.352 2844.69 203.54L2824.93 221.489Z" fill="white"/>
<path id="Fill-17" fill-rule="evenodd" clip-rule="evenodd" d="M2921.96 379.061C2921.96 382.559 2918.88 385.625 2915.38 385.625H2884.64C2881.13 385.625 2878.06 382.559 2878.06 379.061V85.802C2878.06 82.3038 2881.13 79.2388 2884.64 79.2388H2915.38C2918.88 79.2388 2921.96 82.3038 2921.96 85.802V258.253L3006.68 171.593C3009.77 168.528 3013.71 166.776 3018.09 166.776H3062.01C3062.9 166.776 3063.31 167.212 3063.76 168.086C3064.2 168.528 3063.76 169.405 3063.31 169.841L2959.27 271.821L3070.78 381.249C3071.67 382.124 3072.11 382.995 3071.67 384.311C3071.22 385.189 3070.34 385.625 3069.48 385.625H3024.7C3020.29 385.625 3016.34 383.87 3013.26 380.808L2921.96 288.018V379.061Z" fill="white"/>
<path id="Fill-18" fill-rule="evenodd" clip-rule="evenodd" d="M3242 326.533C3242 364.175 3207.75 389.123 3162.08 389.123C3130.49 389.123 3108.09 382.995 3084.38 370.302C3081.3 368.556 3080 364.616 3081.3 361.11L3091.41 340.979C3092.74 337.48 3096.68 336.162 3099.76 337.914C3118.19 346.665 3138.4 352.795 3159.47 352.795C3179.65 352.795 3196.78 342.73 3196.78 326.969C3196.78 278.392 3081.75 304.215 3082.19 225.864C3082.63 186.471 3111.61 163.278 3153.31 163.278C3165.16 163.278 3194.14 165.024 3226.18 179.908C3229.7 181.654 3231.01 185.597 3229.7 189.1L3219.6 210.109C3218.29 213.61 3214.35 214.92 3210.83 213.61C3195.45 207.48 3175.71 201.352 3161.22 201.352C3141.9 201.352 3124.77 206.169 3123.91 224.112C3123.91 264.38 3242 244.685 3242 326.533Z" fill="white"/>
</g>
</svg>
