<svg width="366" height="382" viewBox="0 0 366 382" fill="none" xmlns="http://www.w3.org/2000/svg">
<g id="logo">
<g id="Page-1">
<g id="logo_2">
<g id="Group">
<path id="Shape" fill-rule="evenodd" clip-rule="evenodd" d="M332.421 96.4957C332.15 95.6822 331.338 94.8687 330.525 94.8687L283.111 95.9534C283.111 95.9534 283.111 95.9534 282.84 95.9534C282.298 95.9534 281.756 96.2245 281.485 96.7669L261.436 121.444C260.894 121.986 260.894 122.8 261.165 123.613C261.436 124.155 262.249 124.698 263.062 124.698L308.85 123.613L317.249 168.628C317.52 169.442 318.062 169.984 318.604 170.255H319.146C319.687 170.255 320.229 169.984 320.5 169.442L340.55 144.765C340.82 144.222 341.091 143.68 340.82 143.138L332.421 96.4957Z" fill="#5781FF"/>
<path id="Shape_2" fill-rule="evenodd" clip-rule="evenodd" d="M352.742 296.622L292.052 211.202C290.968 209.847 289.613 209.033 287.988 209.033C286.362 209.033 284.737 209.575 283.653 210.931L269.022 228.286C267.397 230.185 267.397 232.896 268.751 234.795L326.19 315.876L326.461 316.147C326.461 316.418 329.17 320.215 331.338 325.096C333.505 330.248 333.505 333.773 332.963 334.858C328.086 345.976 320.5 348.959 316.707 348.959H49.0219C45.2288 348.959 37.9135 345.976 32.7657 334.858C31.4111 331.875 34.9332 322.384 39.2682 316.418L39.5391 316.147L90.2043 246.998C93.7264 247.269 97.2486 246.726 100.771 245.642L156.584 284.42C161.19 293.097 170.401 298.792 180.155 298.792C195.057 298.792 206.978 286.86 206.978 271.946V270.59L321.584 135.545C322.397 134.46 322.939 133.104 322.939 131.748C322.939 130.393 322.126 129.037 321.042 128.223L304.244 113.851C302.077 111.953 298.554 112.224 296.658 114.393L185.032 245.099C177.717 243.743 170.131 245.37 164.17 249.709L118.653 217.982C117.569 204.152 105.919 193.034 91.8299 193.034C76.9284 193.034 65.0072 204.965 65.0072 219.88C65.0072 221.507 65.2781 223.405 65.549 225.032L13.2583 296.351C12.4455 297.436 -7.33287 324.011 2.96272 347.874C13.8002 372.551 33.8495 381.5 49.0219 381.5H316.978C332.151 381.5 351.929 372.551 363.037 347.874C373.333 324.282 353.555 297.436 352.742 296.622Z" fill="#5781FF"/>
<path id="Shape_3" fill-rule="evenodd" clip-rule="evenodd" d="M234.884 0.5H131.116C123.259 0.5 117.027 6.73701 117.027 14.6011V22.194C117.027 30.058 123.259 36.295 131.116 36.295H135.451L134.096 131.206L109.712 163.747C108.357 165.916 108.628 168.628 109.983 170.526L124.613 187.882C125.697 189.237 127.052 189.78 128.948 189.78C130.574 189.78 132.199 188.966 133.012 187.61L161.461 149.375C164.983 144.765 166.608 139.341 166.879 133.647L168.234 33.3121H197.766L199.121 133.647C199.121 139.341 201.017 144.765 204.539 149.375L219.712 169.984C220.796 171.34 222.15 172.153 223.776 172.153C225.402 172.153 227.027 171.611 228.111 170.255L242.741 152.9C244.367 151.002 244.367 148.29 243.012 146.392L232.175 131.477L230.82 36.5662H235.426C243.283 36.5662 249.515 30.3292 249.515 22.4651V14.6011C249.244 6.73701 242.741 0.5 234.884 0.5Z" fill="#49494A"/>
</g>
</g>
</g>
</g>
</svg>
