<svg width="245" height="282" viewBox="0 0 245 282" fill="none" xmlns="http://www.w3.org/2000/svg">
<g clip-path="url(#clip0)">
<path d="M90.5781 85.7535C87.626 74.7363 94.1641 63.4121 105.181 60.46V60.46C116.198 57.508 127.523 64.0461 130.475 75.0632L177.714 251.361C180.666 262.378 174.128 273.703 163.11 276.655V276.655C152.093 279.607 140.769 273.069 137.817 262.052L90.5781 85.7535Z" fill="#0066E8"/>
<path opacity="0.5" d="M89.848 76.526C92.8 65.5088 104.124 58.9707 115.141 61.9228V61.9228C126.159 64.8748 132.697 76.1991 129.745 87.2163L82.9746 261.764C80.0226 272.782 68.6983 279.32 57.6811 276.368V276.368C46.664 273.416 40.1259 262.091 43.0779 251.074L89.848 76.526Z" fill="#0066E8"/>
<path d="M5.34515 121.619C2.39311 110.602 8.93119 99.2773 19.9484 96.3253V96.3253C30.9655 93.3732 42.2898 99.9113 45.2419 110.928L82.8259 251.194C85.7779 262.211 79.2399 273.535 68.2227 276.488V276.488C57.2055 279.44 45.8812 272.901 42.9292 261.884L5.34515 121.619Z" fill="#0066E8"/>
<path d="M199.736 19.9359C202.699 8.92215 214.025 2.39127 225.042 5.34321V5.34321C236.064 8.29658 242.607 19.6241 239.657 30.6473L200.5 177L179 97L199.736 19.9359Z" fill="#0066E8"/>
<path opacity="0.5" d="M157.5 177L179 97L200.5 177L179 257L157.5 177Z" fill="#0066E8"/>
</g>
<defs>
<clipPath id="clip0">
<rect width="245" height="282" fill="white"/>
</clipPath>
</defs>
</svg>
