<svg width="1776" height="230" viewBox="0 0 1776 230" fill="none" xmlns="http://www.w3.org/2000/svg">
<g clip-path="url(#clip0)">
<path d="M58.9574 56.6233C56.9055 48.9657 61.4499 41.0945 69.1076 39.0427V39.0427C76.7652 36.9908 84.6364 41.5352 86.6882 49.1929L119.522 171.731C121.574 179.389 117.03 187.26 109.372 189.312V189.312C101.714 191.364 93.8434 186.819 91.7915 179.162L58.9574 56.6233Z" fill="white"/>
<path opacity="0.5" d="M58.4503 50.2096C60.5022 42.552 68.3733 38.0076 76.0309 40.0594V40.0594C83.6886 42.1113 88.233 49.9824 86.1811 57.6401L53.6729 178.962C51.621 186.62 43.7499 191.164 36.0923 189.113V189.113C28.4346 187.061 23.8902 179.19 25.9421 171.532L58.4503 50.2096Z" fill="white"/>
<path d="M-0.284775 81.5519C-2.33664 73.8942 2.20775 66.0231 9.86541 63.9713V63.9713C17.5231 61.9194 25.3942 66.4638 27.446 74.1214L53.5694 171.615C55.6212 179.273 51.0768 187.144 43.4192 189.196V189.196C35.7615 191.248 27.8904 186.703 25.8386 179.046L-0.284775 81.5519Z" fill="white"/>
<path d="M134.829 10.8758C136.889 3.22052 144.761 -1.31888 152.419 0.732916V0.732916C160.08 2.7857 164.627 10.659 162.577 18.3209L135.361 120.046L120.417 64.4403L134.829 10.8758Z" fill="white"/>
<path opacity="0.5" d="M105.473 120.046L120.417 64.4403L135.36 120.046L120.417 175.651L105.473 120.046Z" fill="white"/>
<path d="M222.54 62.56C187.5 62.56 160.86 89.44 160.86 124.72C160.86 160.24 188.46 186.88 225.9 186.88C239.82 186.88 252.78 183.04 263.58 175.84C269.34 172 271.74 168.16 271.74 162.88C271.74 155.44 265.98 149.92 258.54 149.92C256.14 149.92 253.98 150.64 251.58 152.08C244.38 156.64 235.5 159.04 226.86 159.04C209.34 159.04 197.34 150.4 193.5 135.52H261.18C271.74 135.52 278.94 129.04 278.94 118.96V118.24C278.94 86.08 254.94 62.56 222.54 62.56ZM221.82 88.72C236.94 88.72 247.02 98.56 247.5 112.72H193.5C197.1 98.08 207.66 88.72 221.82 88.72ZM359.181 62.56C324.141 62.56 297.501 89.44 297.501 124.72C297.501 160.24 325.101 186.88 362.541 186.88C376.461 186.88 389.421 183.04 400.221 175.84C405.981 172 408.381 168.16 408.381 162.88C408.381 155.44 402.621 149.92 395.181 149.92C392.781 149.92 390.621 150.64 388.221 152.08C381.021 156.64 372.141 159.04 363.501 159.04C345.981 159.04 333.981 150.4 330.141 135.52H397.821C408.381 135.52 415.581 129.04 415.581 118.96V118.24C415.581 86.08 391.581 62.56 359.181 62.56ZM358.461 88.72C373.581 88.72 383.661 98.56 384.141 112.72H330.141C333.741 98.08 344.301 88.72 358.461 88.72ZM457.181 1.11999C447.821 1.11999 440.861 8.31999 440.861 17.68V170.32C440.861 179.68 447.821 186.88 457.181 186.88C466.301 186.88 473.261 179.92 473.261 170.32V17.68C473.261 8.07999 466.541 1.11999 457.181 1.11999ZM545.261 159.04L513.581 124L542.381 90.16C546.221 85.6 547.661 81.76 547.661 78.16C547.661 69.52 540.701 62.56 532.061 62.56C527.021 62.56 522.461 64.72 518.861 69.28L483.581 112.96C479.981 117.28 478.541 120.88 478.541 124.48C478.541 128.32 479.981 131.92 483.581 136.24L521.741 179.68C525.341 184.24 529.661 186.64 534.941 186.64C543.581 186.64 550.541 179.68 550.541 171.04C550.541 167.44 549.101 163.6 545.261 159.04ZM591.478 186.88C600.598 186.88 607.558 179.68 607.558 170.32V17.68C607.558 8.31999 600.598 1.11999 591.478 1.11999C582.118 1.11999 575.158 8.31999 575.158 17.68V170.32C575.158 179.68 582.118 186.88 591.478 186.88ZM737.051 62.56C730.571 62.56 725.051 66.16 722.651 71.68L690.491 142L659.051 71.68C656.651 65.92 651.131 62.56 644.891 62.56C636.251 62.56 629.051 69.76 629.051 78.16C629.051 80.56 629.771 82.96 631.211 85.84L672.251 176.32L667.931 185.92C662.651 196.72 655.691 201.04 645.371 201.04C644.651 201.04 643.691 200.8 642.491 200.8C634.331 200.8 627.851 206.8 627.851 214.72C627.851 220.24 630.971 225.28 636.011 227.44C639.611 229.12 644.411 230.08 649.691 230.08C671.291 230.08 685.691 219.04 698.411 192.88L750.731 85.6C752.171 82.96 752.651 80.56 752.651 78.16C752.651 69.76 745.451 62.56 737.051 62.56ZM893.259 186.88C924.939 186.88 948.699 168.64 948.699 139.36C948.699 117.76 935.979 104.8 909.579 93.04L891.579 85.12C877.419 78.64 873.099 74.8 873.099 66.88C873.099 57.04 881.259 51.52 892.779 51.52C904.059 51.52 911.259 57.04 917.739 62.8C920.619 65.2 923.739 66.16 926.619 66.16C934.059 66.16 941.499 59.92 941.499 51.76C941.499 48.64 940.539 45.04 937.179 41.44C930.459 33.76 916.539 22.72 892.779 22.72C862.779 22.72 840.219 40.96 840.219 67.6C840.219 88 853.419 101.68 878.619 113.2L895.659 120.88C910.299 127.6 915.819 131.44 915.819 140.56C915.819 151.36 907.419 158.08 893.259 158.08C877.179 158.08 865.899 148.48 859.419 141.76C857.019 139.6 853.899 138.64 851.019 138.64C843.339 138.64 836.379 144.4 836.139 153.04C836.139 157.6 838.299 161.68 842.139 165.52C853.899 178.48 874.539 186.88 893.259 186.88ZM1038.63 157.6C1037.43 157.6 1035.99 157.84 1034.07 157.84C1018.95 157.84 1012.71 152.56 1012.71 139.36V92.56H1034.55C1042.47 92.56 1048.23 86.8 1048.23 78.88C1048.23 70.96 1042.47 65.2 1034.55 65.2H1012.71V48.88C1012.71 39.52 1005.75 32.56 996.63 32.56C987.03 32.56 980.31 39.52 980.31 48.88V65.2H973.59C965.67 65.2 959.67 70.96 959.67 78.88C959.67 86.8 965.67 92.56 973.59 92.56H980.31V142.24C980.31 171.28 996.87 186.88 1027.83 186.88C1034.79 186.88 1040.07 185.68 1044.63 183.76C1049.67 181.36 1052.79 176.8 1052.79 170.8C1052.79 162.88 1047.27 157.6 1038.63 157.6ZM1128.21 62.56C1092.45 62.56 1064.61 89.68 1064.61 124.48C1064.61 159.28 1092.45 186.64 1127.97 186.64C1163.73 186.64 1192.05 159.04 1192.05 124.48C1192.05 89.92 1163.73 62.56 1128.21 62.56ZM1128.21 92.08C1145.73 92.08 1158.93 106 1158.93 124.72C1158.93 143.2 1145.73 156.88 1128.21 156.88C1110.45 156.88 1097.49 143.44 1097.49 124.72C1097.49 105.76 1110.45 92.08 1128.21 92.08ZM1274.23 186.88C1295.35 186.88 1312.63 177.76 1322.47 162.64C1324.39 159.76 1325.11 157.36 1325.11 154.48C1325.11 146.56 1318.63 140.08 1310.71 140.08C1306.39 140.08 1303.03 141.28 1299.67 145.12C1293.19 152.32 1285.03 157.12 1274.71 157.12C1256.47 157.12 1243.51 143.68 1243.51 124.48C1243.51 105.52 1256.47 92.08 1274.71 92.08C1285.27 92.08 1293.67 96.88 1299.67 104.08C1302.55 107.68 1306.15 109.12 1310.71 109.12C1318.63 109.12 1325.11 102.64 1325.11 94.72C1325.11 92.08 1324.39 89.44 1322.23 86.08C1313.11 72.16 1294.39 62.56 1274.23 62.56C1238.47 62.56 1210.63 89.68 1210.63 124.48C1210.63 159.28 1238.47 186.88 1274.23 186.88ZM1366.09 1.11999C1356.73 1.11999 1349.77 8.31999 1349.77 17.68V170.32C1349.77 179.68 1356.73 186.88 1366.09 186.88C1375.21 186.88 1382.17 179.92 1382.17 170.32V17.68C1382.17 8.07999 1375.45 1.11999 1366.09 1.11999ZM1454.17 159.04L1422.49 124L1451.29 90.16C1455.13 85.6 1456.57 81.76 1456.57 78.16C1456.57 69.52 1449.61 62.56 1440.97 62.56C1435.93 62.56 1431.37 64.72 1427.77 69.28L1392.49 112.96C1388.89 117.28 1387.45 120.88 1387.45 124.48C1387.45 128.32 1388.89 131.92 1392.49 136.24L1430.65 179.68C1434.25 184.24 1438.57 186.64 1443.85 186.64C1452.49 186.64 1459.45 179.68 1459.45 171.04C1459.45 167.44 1458.01 163.6 1454.17 159.04ZM1548.86 157.6C1547.66 157.6 1546.22 157.84 1544.3 157.84C1529.18 157.84 1522.94 152.56 1522.94 139.36V92.56H1544.78C1552.7 92.56 1558.46 86.8 1558.46 78.88C1558.46 70.96 1552.7 65.2 1544.78 65.2H1522.94V48.88C1522.94 39.52 1515.98 32.56 1506.86 32.56C1497.26 32.56 1490.54 39.52 1490.54 48.88V65.2H1483.82C1475.9 65.2 1469.9 70.96 1469.9 78.88C1469.9 86.8 1475.9 92.56 1483.82 92.56H1490.54V142.24C1490.54 171.28 1507.1 186.88 1538.06 186.88C1545.02 186.88 1550.3 185.68 1554.86 183.76C1559.9 181.36 1563.02 176.8 1563.02 170.8C1563.02 162.88 1557.5 157.6 1548.86 157.6ZM1599.99 2.31999C1588.95 2.31999 1579.83 10.96 1579.83 22C1579.83 32.8 1588.95 41.44 1599.99 41.44C1611.03 41.44 1620.39 32.8 1620.39 22C1620.39 10.96 1611.03 2.31999 1599.99 2.31999ZM1599.99 186.88C1609.35 186.88 1616.31 179.68 1616.31 170.32V78.88C1616.31 69.52 1609.35 62.56 1600.23 62.56C1590.87 62.56 1583.91 69.52 1583.91 78.88V170.32C1583.91 179.68 1590.87 186.88 1599.99 186.88ZM1716.28 62.56C1700.92 62.56 1688.2 68.08 1680.04 77.68C1679.56 68.8 1673.08 62.32 1664.44 62.32C1655.32 62.32 1648.36 69.28 1648.36 78.4V213.76C1648.36 223.12 1655.32 230.08 1664.68 230.08C1673.8 230.08 1680.76 223.12 1680.76 213.76V172.48C1688.92 181.6 1701.4 186.88 1716.28 186.88C1749.64 186.88 1773.88 160.48 1773.88 124.48C1773.88 88.48 1749.64 62.56 1716.28 62.56ZM1710.28 157.36C1692.52 157.36 1680.28 143.92 1680.28 124.48C1680.28 105.04 1692.28 91.84 1710.28 91.84C1728.28 91.84 1741 105.52 1741 124.72C1741 143.68 1728.04 157.36 1710.28 157.36Z" fill="white"/>
</g>
<defs>
<clipPath id="clip0">
<rect width="1776" height="230" fill="white"/>
</clipPath>
</defs>
</svg>
