<?xml version="1.0" encoding="UTF-8"?>
<svg width="156px" height="44px" viewBox="0 0 156 44" version="1.1" xmlns="http://www.w3.org/2000/svg" xmlns:xlink="http://www.w3.org/1999/xlink">
    <title>nasdaq</title>
    <defs>
        <polygon id="path-1" points="0 0 15.027 0 15.027 24 0 24"></polygon>
        <polygon id="path-3" points="0 0.016 27 0.016 27 33 0 33"></polygon>
        <polygon id="path-5" points="0 0 27 0 27 33.797 0 33.797"></polygon>
    </defs>
    <g id="Page-1" stroke="none" stroke-width="1" fill="none" fill-rule="evenodd">
        <g id="Exchanges" transform="translate(-365.000000, -22.000000)">
            <g id="nasdaq" transform="translate(365.000000, 22.000000)">
                <path d="M115.297,33.328 C110.004,33.328 106.715,30.262 106.715,25.32 C106.715,20.191 109.75,17 114.637,17 L115.047,17 C115.66,17 116.504,17.02 117.657,17.164 L117.657,10.973 L121.109,10.973 L121.109,32.77 C121.109,32.77 117.829,33.328 115.297,33.328 M115.266,19.718 C111.922,19.718 110.296,21.523 110.296,25.234 C110.296,28.566 112.258,30.637 115.41,30.637 C116.016,30.637 116.71,30.597 117.656,30.516 L117.656,19.94 C116.711,19.788 115.949,19.718 115.266,19.718 M68.012,32.828 L58.687,16.555 L58.684,32.828 L55.434,32.828 L55.434,12.227 L59.984,12.227 L69.309,28.355 L69.305,12.227 L72.598,12.227 L72.598,32.828 L68.012,32.828 Z M97.715,33.145 C96.145,33.145 94.508,32.969 92.559,32.594 L92.348,32.554 L92.348,29.676 L92.656,29.742 C94.375,30.109 95.859,30.422 97.344,30.422 C98.543,30.422 101.336,30.234 101.336,28.469 C101.336,26.989 99.406,26.617 97.856,26.32 L97.758,26.3 C97.468,26.246 97.195,26.191 96.965,26.133 C94.691,25.543 92.265,24.656 92.265,21.609 C92.265,18.637 94.617,16.934 98.719,16.934 C100.688,16.934 102.117,17.144 103.266,17.316 L103.824,17.398 L103.824,20.191 L103.527,20.137 C102.227,19.898 100.703,19.652 99.238,19.652 C97.609,19.652 95.676,19.957 95.676,21.406 C95.676,22.609 97.258,22.953 99.09,23.352 C101.652,23.906 104.828,24.602 104.828,28.098 C104.828,31.305 102.238,33.145 97.715,33.145 M130.8,33.145 C127.227,33.145 123.918,32.515 123.918,27.953 C123.918,22.988 129.035,22.988 132.094,22.988 C132.398,22.988 133.836,23.055 134.277,23.074 C134.273,20.289 134.238,19.625 130.199,19.625 C128.598,19.625 126.82,19.941 125.25,20.223 L124.95,20.277 L124.95,17.527 L125.152,17.484 C126.972,17.114 128.727,16.934 130.516,16.934 C134.43,16.934 137.746,17.328 137.746,22.184 L137.746,32.774 L137.508,32.801 C134.797,33.105 132.645,33.145 130.801,33.145 M132.008,25.445 C129.058,25.445 127.23,25.879 127.23,28.039 C127.23,30.539 129.562,30.746 131.75,30.746 C132.566,30.746 134.035,30.641 134.484,30.609 L134.484,25.531 C133.852,25.504 132.207,25.445 132.008,25.445 M82.363,33.145 C78.785,33.145 75.477,32.515 75.477,27.953 C75.477,22.988 80.594,22.988 83.652,22.988 C83.957,22.988 85.398,23.055 85.84,23.074 C85.836,20.289 85.797,19.625 81.758,19.625 C80.156,19.625 78.378,19.941 76.808,20.223 L76.508,20.277 L76.508,17.527 L76.715,17.484 C78.4783925,17.1193759 80.274305,16.9350939 82.075,16.934 C85.988,16.934 89.305,17.328 89.305,22.184 L89.305,32.774 L89.066,32.801 C86.356,33.105 84.203,33.145 82.363,33.145 M83.566,25.445 C80.617,25.445 78.793,25.879 78.793,28.039 C78.793,30.539 81.121,30.746 83.309,30.746 C84.129,30.746 85.598,30.641 86.047,30.609 L86.047,25.531 C85.41,25.504 83.766,25.445 83.567,25.445" id="Shape" fill="#BEBEBE" fill-rule="nonzero"></path>
                <g id="Clipped" transform="translate(140.000000, 16.000000)">
                    <mask id="mask-2" fill="white">
                        <use xlink:href="#path-1"></use>
                    </mask>
                    <g id="a"></g>
                    <path d="M11.492,23.828 L11.492,17.07 C10.145,17.258 9.43,17.258 8.852,17.258 C7.484,17.258 5.965,16.961 4.789,16.465 C2.156,15.37 0.586,12.59 0.586,9.023 C0.586,7.243 1.02,3.988 3.922,2.234 C5.379,1.364 7.098,0.992 9.684,0.992 C10.609,0.992 11.859,1.062 13.066,1.132 L15.027,1.234 L15.027,22.262 L11.492,23.828 Z M9.426,3.71099958 C5.918,3.71 4.14,5.5 4.14,9.023 C4.14,13.559 6.792,14.512 9.022,14.512 C9.565,14.512 10.175,14.512 11.526,14.34 L11.526,3.809 C10.468,3.739 9.979,3.71099958 9.425,3.71099958 L9.426,3.71099958 Z" id="Shape" fill="#BEBEBE" fill-rule="nonzero" mask="url(#mask-2)"></path>
                </g>
                <g id="Clipped" transform="translate(26.000000, 0.000000)">
                    <mask id="mask-4" fill="white">
                        <use xlink:href="#path-3"></use>
                    </mask>
                    <g id="c"></g>
                    <path d="M14.012,0.016 L2.594,31.386 C2.30592688,32.174128 1.59284585,32.7283582 0.758,32.813 L0.758,32.828 L12.828,32.828 C13.773,32.828 14.582,32.227 14.883,31.387 L26.305,0.016 L14.012,0.016 Z" id="Path" fill="#BEBEBE" fill-rule="nonzero" mask="url(#mask-4)"></path>
                </g>
                <path d="M25.773,32.352 C26.473,32.352 27.086,32.004 27.461,31.477 C27.5,31.422 27.637,31.23 27.734,30.969 L31.922,19.457 L29.472,12.734 C29.181389,12.0407111 28.5377626,11.5594654 27.7905883,11.4767922 C27.0434141,11.3941191 26.3101473,11.7230146 25.875,12.336 C25.835,12.391 25.672,12.636 25.602,12.844 L21.414,24.352 L23.875,31.102 C24.2012921,31.8602932 24.947485,32.3517269 25.773,32.352" id="Path" fill="#BEBEBE" fill-rule="nonzero"></path>
                <g id="Clipped" transform="translate(0.000000, 10.000000)">
                    <mask id="mask-6" fill="white">
                        <use xlink:href="#path-5"></use>
                    </mask>
                    <g id="e"></g>
                    <path d="M26.668,0.984 L14.465,0.984 C13.52,0.984 12.711,1.582 12.406,2.426 L0.988,33.796 L13.281,33.796 L24.7,2.427 C25.0030092,1.59226711 25.7806872,1.02362959 26.668,0.988 L26.668,0.984 Z" id="Path" fill="#BEBEBE" fill-rule="nonzero" mask="url(#mask-6)"></path>
                </g>
            </g>
        </g>
    </g>
</svg>