<?xml version="1.0" encoding="UTF-8"?>
<svg width="43px" height="45px" viewBox="0 0 43 45" version="1.1" xmlns="http://www.w3.org/2000/svg" xmlns:xlink="http://www.w3.org/1999/xlink">
    <title>nyse</title>
    <defs>
        <polygon id="path-1" points="0.00864034667 0.00393461538 5.44814409 0.00393461538 5.44814409 27.7129269 0.00864034667 27.7129269 0.00864034667 0.00393461538"></polygon>
        <polygon id="path-3" points="0.000351090885 0.00393461538 5.44006549 0.00393461538 5.44006549 27.7129269 0.000351090885 27.7129269 0.000351090885 0.00393461538"></polygon>
        <polygon id="path-5" points="0.0083735176 0.00393461538 5.44787726 0.00393461538 5.44787726 27.7129269 0.0083735176 27.7129269 0.0083735176 0.00393461538"></polygon>
        <polygon id="path-7" points="0.00140436354 0.00393461538 5.4409081 0.00393461538 5.4409081 27.7129269 0.00140436354 27.7129269 0.00140436354 0.00393461538"></polygon>
        <polygon id="path-9" points="0.00140436354 0.00393461538 5.4409081 0.00393461538 5.4409081 27.7129269 0.00140436354 27.7129269 0.00140436354 0.00393461538"></polygon>
        <polygon id="path-11" points="0.0105327265 0.00393461538 5.45010669 0.00393461538 5.45010669 27.7129269 0.0105327265 27.7129269 0.0105327265 0.00393461538"></polygon>
    </defs>
    <g id="Page-1" stroke="none" stroke-width="1" fill="none" fill-rule="evenodd">
        <g id="Exchanges" transform="translate(-270.000000, -21.000000)">
            <g id="nyse" transform="translate(270.000000, 21.000000)">
                <g id="g10" transform="translate(21.500000, 22.500000) scale(-1, 1) rotate(-180.000000) translate(-21.500000, -22.500000) translate(-0.000000, -0.000000)">
                    <g id="g12" transform="translate(0.000000, 0.071538)">
                        <polyline id="path86" fill="#BEBEBE" fill-rule="nonzero" points="2.43699205 0.135207692 0.00864034667 0.135207692 0.00864034667 12.6041827 2.43713249 12.6041827 7.39081421 4.67521731 7.39081421 12.6041827 9.81929231 12.6041827 9.81929231 0.135207692 7.54873489 0.135207692 2.43699205 8.33637692 2.43699205 0.135207692"></polyline>
                        <polyline id="path88" fill="#BEBEBE" fill-rule="nonzero" points="11.56776 12.6041827 14.5297383 12.6041827 17.2494463 8.03949231 19.9816355 12.6041827 22.9936442 12.6041827 18.4642207 5.51543654 18.4642207 0.135207692 16.0357251 0.135207692 16.0357251 5.57785385 11.56776 12.6041827"></polyline>
                        <path d="M30.5243682,9.0861 L31.7877687,11.1042 C31.7877687,11.1042 30.3400454,12.7098808 27.672808,12.7098808 C24.9669505,12.7098808 23.7172425,10.8543519 23.7172425,9.01742308 C23.7172425,7.17691731 25.4600577,5.94949615 26.637441,5.47734231 C28.4404682,4.83027692 29.7149281,4.51210962 29.7149281,3.58801154 C29.7149281,2.88675577 29.0167839,2.36345192 28.0346071,2.36345192 C26.1924333,2.36345192 24.7352306,3.89419615 24.7352306,3.89419615 L23.4168843,1.80115962 C23.4168843,1.80115962 25.1754985,0.00178846154 27.9917741,0.00178846154 C30.1729262,0.00178846154 32.1188474,1.55023846 32.1188474,3.83803846 C32.1188474,5.89834615 30.4002575,7.03330385 28.8995195,7.46915192 C27.5987278,7.85528077 26.2254358,8.22531346 26.2254358,9.16121538 C26.2254358,9.77233269 26.7274958,10.3356981 27.605223,10.3356981 C29.0936728,10.3356981 30.5243682,9.0861 30.5243682,9.0861 L30.5243682,9.0861" id="path90" fill="#BEBEBE" fill-rule="nonzero"></path>
                        <polyline id="path92" fill="#BEBEBE" fill-rule="nonzero" points="34.2970153 0.135207692 34.2970153 12.6041827 42.2620386 12.6041827 42.2620386 10.4272673 36.7255109 10.4272673 36.7255109 7.45824231 41.4850745 7.45824231 41.4850745 5.28096923 36.7255109 5.28096923 36.7255109 2.31230192 42.2620386 2.31230192 42.2620386 0.135207692 34.2970153 0.135207692"></polyline>
                        <g id="g96-Clipped" transform="translate(0.000000, 15.470192)">
                            <mask id="mask-2" fill="white">
                                <use xlink:href="#path-1"></use>
                            </mask>
                            <g id="path100"></g>
                            <g id="g96" mask="url(#mask-2)" fill="#BEBEBE" fill-rule="nonzero">
                                <polygon id="path126" points="0.00864034667 0.00393461538 5.44814409 0.00393461538 5.44814409 27.7129269 0.00864034667 27.7129269 0.00864034667 0.00393461538"></polygon>
                            </g>
                        </g>
                        <g id="g130-Clipped" transform="translate(7.390463, 15.470192)">
                            <mask id="mask-4" fill="white">
                                <use xlink:href="#path-3"></use>
                            </mask>
                            <g id="path134"></g>
                            <g id="g130" mask="url(#mask-4)" fill="#BEBEBE" fill-rule="nonzero">
                                <polygon id="path160" points="0.000351090885 0.00393461538 5.44006549 0.00393461538 5.44006549 27.7129269 0.000351090885 27.7129269 0.000351090885 0.00393461538"></polygon>
                            </g>
                        </g>
                        <g id="g164-Clipped" transform="translate(14.728263, 15.470192)">
                            <mask id="mask-6" fill="white">
                                <use xlink:href="#path-5"></use>
                            </mask>
                            <g id="path168"></g>
                            <g id="g164" mask="url(#mask-6)" fill="#BEBEBE" fill-rule="nonzero">
                                <polygon id="path194" points="0.0083735176 0.00393461538 5.44787726 0.00393461538 5.44787726 27.7129269 0.0083735176 27.7129269 0.0083735176 0.00393461538"></polygon>
                            </g>
                        </g>
                        <g id="g198-Clipped" transform="translate(22.153835, 15.470192)">
                            <mask id="mask-8" fill="white">
                                <use xlink:href="#path-7"></use>
                            </mask>
                            <g id="path202"></g>
                            <g id="g198" mask="url(#mask-8)" fill="#BEBEBE" fill-rule="nonzero">
                                <polygon id="path228" points="0.00140436354 0.00393461538 5.4409081 0.00393461538 5.4409081 27.7129269 0.00140436354 27.7129269 0.00140436354 0.00393461538"></polygon>
                            </g>
                        </g>
                        <g id="g232-Clipped" transform="translate(29.438971, 15.470192)">
                            <mask id="mask-10" fill="white">
                                <use xlink:href="#path-9"></use>
                            </mask>
                            <g id="path236"></g>
                            <g id="g232" mask="url(#mask-10)" fill="#BEBEBE" fill-rule="nonzero">
                                <polygon id="path262" points="0.00140436354 0.00393461538 5.4409081 0.00393461538 5.4409081 27.7129269 0.00140436354 27.7129269 0.00140436354 0.00393461538"></polygon>
                            </g>
                        </g>
                        <g id="g266-Clipped" transform="translate(36.811879, 15.470192)">
                            <mask id="mask-12" fill="white">
                                <use xlink:href="#path-11"></use>
                            </mask>
                            <g id="path270"></g>
                            <g id="g266" mask="url(#mask-12)" fill="#BEBEBE" fill-rule="nonzero">
                                <polygon id="path296" points="0.0105327265 0.00393461538 5.45010669 0.00393461538 5.45010669 27.7129269 0.0105327265 27.7129269 0.0105327265 0.00393461538"></polygon>
                            </g>
                        </g>
                    </g>
                </g>
            </g>
        </g>
    </g>
</svg>