<?xml version="1.0" encoding="UTF-8"?>
<svg width="50px" height="45px" viewBox="0 0 50 45" version="1.1" xmlns="http://www.w3.org/2000/svg" xmlns:xlink="http://www.w3.org/1999/xlink">
    <title>tsx</title>
    <g id="Page-1" stroke="none" stroke-width="1" fill="none" fill-rule="evenodd">
        <g id="Exchanges" transform="translate(-573.000000, -22.000000)" fill="#BEBEBE" fill-rule="nonzero">
            <g id="Layer_1" transform="translate(573.000000, 22.000000)">
                <path d="M18.9984536,27.4466761 L15.2765464,27.4466761 L15.7582474,29.1472159 L20.7033505,29.1472159 C24.535567,29.1472159 27.0448454,27.9219886 27.3213918,25.577642 C27.7971649,21.5365909 20.2680412,20.4522443 20.2680412,18.5829545 C20.2680412,17.7739773 21.0280928,17.2421591 22.8041237,17.2421591 L25.8938144,17.2421591 L25.8938144,15.5416193 C25.8938144,15.5416193 23.4270619,15.5416193 21.8548969,15.5416193 C17.9353093,15.5416193 16.014433,16.7522727 15.7780928,18.8202273 C15.357732,22.4946307 21.8203608,23.2647443 22.2443299,25.5229261 C22.4793814,26.7680966 21.2030928,27.4466761 18.9984536,27.4466761 Z" id="Path"></path>
                <polygon id="Path" points="5.14587629 29.5719034 9.48608247 28.720483 9.48608247 17.2421591 14.1912371 17.2421591 14.1912371 15.5416193 0.0760309278 15.5416193 0.558505155 17.2421591 5.14587629 17.2421591"></polygon>
                <path d="M49.9010309,11.7035795 L44.0966495,11.7035795 C45.1278351,8.02764205 45.6778351,4.18423295 45.6778351,0.228579545 L42.0399485,1.51056818 C41.3752577,22.1947159 24.6652062,39.3432955 2.48865979,43.6346591 L2.025,44.8726705 C11.8435567,43.1061648 20.6487113,38.8869034 27.5829897,32.9742614 L31.8036082,32.9742614 L37.3554124,25.9565625 L42.9043814,32.9742614 L49.9010309,32.9742614 L40.6572165,22.3448011 L49.9010309,11.7035795 Z" id="Path"></path>
                <path d="M35.8384021,18.9148295 L32.9662371,15.5416193 L28.1412371,15.5416193 L33.8907216,22.146392 C34.6381443,21.1745455 35.3525773,20.0170739 35.8384021,18.9148295 Z" id="Path"></path>
            </g>
        </g>
    </g>
</svg>